<svg xmlns="http://www.w3.org/2000/svg" xmlns:xlink="http://www.w3.org/1999/xlink" width="500" zoomAndPan="magnify" viewBox="0 0 375 374.999991" height="500" preserveAspectRatio="xMidYMid meet" version="1.0"><defs><clipPath id="id1"><path d="M 128.140625 169 L 165 169 L 165 221.988281 L 128.140625 221.988281 Z M 128.140625 169 " clip-rule="nonzero"/></clipPath><clipPath id="id2"><path d="M 170 152.988281 L 190 152.988281 L 190 208 L 170 208 Z M 170 152.988281 " clip-rule="nonzero"/></clipPath></defs><g clip-path="url(#id1)"><path fill="#3696e1" d="M 164.699219 172.683594 C 164.601562 172.054688 164.398438 171.464844 164.09375 170.910156 C 163.691406 170.195312 163.101562 169.71875 162.316406 169.480469 C 161.011719 169.140625 159.683594 168.996094 158.335938 169.046875 C 156.519531 169.046875 155.21875 169.394531 154.398438 170.042969 C 153.964844 170.421875 153.625 170.871094 153.375 171.390625 C 153.128906 171.910156 152.992188 172.457031 152.96875 173.03125 C 152.625 172.542969 152.234375 172.09375 151.800781 171.6875 C 150.988281 171.011719 150.097656 170.480469 149.117188 170.085938 C 147.734375 169.496094 146.292969 169.207031 144.789062 169.222656 C 140.71875 169.222656 137 171.039062 133.578125 174.632812 C 130.160156 178.222656 128.472656 182.378906 128.472656 187.140625 C 128.453125 189.472656 128.882812 191.71875 129.757812 193.882812 C 130.636719 196.042969 131.894531 197.949219 133.535156 199.609375 C 136.910156 203.15625 140.546875 204.976562 144.398438 204.976562 C 148.25 204.976562 151.109375 203.808594 152.882812 201.46875 L 152.882812 203.589844 C 152.921875 205.46875 152.359375 207.140625 151.195312 208.613281 C 150.679688 209.285156 150.042969 209.800781 149.277344 210.167969 C 148.515625 210.535156 147.710938 210.707031 146.867188 210.691406 C 145.542969 210.679688 144.257812 210.449219 143.011719 210.003906 C 141.765625 209.558594 140.625 208.921875 139.59375 208.09375 C 139.015625 207.578125 138.335938 207.300781 137.5625 207.269531 C 136.917969 207.25 136.339844 207.4375 135.828125 207.832031 C 135.085938 208.445312 134.410156 209.125 133.796875 209.867188 C 133.121094 210.492188 132.597656 211.226562 132.230469 212.070312 C 131.859375 212.914062 131.675781 213.796875 131.675781 214.714844 C 131.675781 216.101562 133.277344 217.660156 136.523438 219.390625 C 139.679688 221.113281 143.054688 221.980469 146.648438 221.988281 C 151.324219 221.988281 155.523438 220.34375 159.246094 217.054688 C 162.964844 213.761719 164.828125 209.433594 164.828125 204.066406 L 164.828125 175.109375 C 164.828125 174.296875 164.785156 173.488281 164.699219 172.683594 Z M 150.71875 191.167969 C 150.183594 191.773438 149.542969 192.238281 148.800781 192.566406 C 148.0625 192.890625 147.285156 193.042969 146.476562 193.027344 C 145.660156 193.042969 144.875 192.890625 144.121094 192.574219 C 143.367188 192.257812 142.710938 191.804688 142.148438 191.210938 C 141.585938 190.675781 141.148438 190.050781 140.839844 189.335938 C 140.53125 188.621094 140.378906 187.875 140.375 187.097656 C 140.375 186.324219 140.523438 185.574219 140.8125 184.855469 C 141.105469 184.136719 141.523438 183.5 142.0625 182.941406 C 142.621094 182.316406 143.289062 181.835938 144.058594 181.503906 C 144.832031 181.171875 145.636719 181.015625 146.476562 181.039062 C 147.304688 181.007812 148.101562 181.15625 148.859375 181.492188 C 149.621094 181.824219 150.269531 182.308594 150.804688 182.941406 C 151.855469 184.113281 152.386719 185.484375 152.40625 187.054688 C 152.410156 187.824219 152.265625 188.566406 151.972656 189.28125 C 151.679688 189.992188 151.261719 190.621094 150.71875 191.167969 Z M 150.71875 191.167969 " fill-opacity="1" fill-rule="nonzero"/></g><g clip-path="url(#id2)"><path fill="#3696e1" d="M 170.402344 159.136719 L 170.402344 192.421875 C 170.402344 197.402344 171.050781 201.035156 172.351562 203.332031 C 173.433594 205.234375 175.769531 206.449219 179.359375 206.878906 C 183.949219 207.445312 186.804688 207.3125 188.015625 206.449219 C 188.96875 205.796875 189.402344 203.980469 189.402344 201.035156 C 189.402344 198.351562 188.925781 196.664062 188.015625 196.058594 C 187.664062 195.789062 187.273438 195.585938 186.847656 195.453125 C 186.21875 195.359375 185.582031 195.332031 184.945312 195.367188 C 183.992188 195.367188 183.386719 195.148438 183.082031 194.71875 C 182.78125 194.285156 182.652344 193.203125 182.652344 191.515625 L 182.652344 159.222656 C 182.652344 158.398438 182.605469 157.578125 182.5625 156.796875 C 182.433594 156.132812 182.214844 155.5 181.914062 154.894531 C 181.222656 153.636719 179.449219 152.988281 176.589844 152.988281 C 173.605469 152.988281 171.789062 153.636719 171.136719 154.894531 C 170.851562 155.484375 170.648438 156.105469 170.53125 156.753906 C 170.421875 157.542969 170.378906 158.335938 170.402344 159.136719 Z M 170.402344 159.136719 " fill-opacity="1" fill-rule="nonzero"/></g><path fill="#3696e1" d="M 207.15625 156.925781 C 207.023438 156.277344 206.808594 155.65625 206.507812 155.066406 C 205.902344 153.808594 204.125 153.160156 201.183594 153.160156 C 198.238281 153.160156 196.378906 153.808594 195.730469 155.066406 C 195.421875 155.621094 195.222656 156.214844 195.125 156.839844 C 194.992188 158.441406 194.992188 160.042969 195.125 161.644531 C 195.214844 162.308594 195.433594 162.929688 195.773438 163.507812 C 196.175781 164.273438 196.792969 164.765625 197.632812 164.980469 C 199.984375 165.550781 202.335938 165.550781 204.6875 164.980469 C 205.503906 164.757812 206.125 164.28125 206.550781 163.550781 C 206.863281 162.980469 207.066406 162.375 207.15625 161.730469 C 207.285156 160.128906 207.285156 158.527344 207.15625 156.925781 Z M 207.15625 174.632812 C 207.113281 173.289062 206.679688 172.25 205.902344 171.601562 C 204.949219 170.824219 203.390625 170.390625 201.140625 170.390625 C 198.152344 170.390625 196.335938 170.996094 195.6875 172.207031 C 195.394531 172.796875 195.191406 173.417969 195.082031 174.070312 C 194.988281 174.875 194.957031 175.683594 194.996094 176.492188 L 194.996094 201.035156 C 194.980469 201.859375 195.007812 202.683594 195.082031 203.503906 C 195.171875 204.148438 195.375 204.753906 195.6875 205.324219 C 196.335938 206.578125 198.109375 207.226562 201.054688 207.226562 C 203.996094 207.226562 205.8125 206.621094 206.421875 205.410156 C 206.765625 204.835938 206.984375 204.214844 207.070312 203.546875 C 207.164062 202.742188 207.191406 201.933594 207.15625 201.125 L 207.15625 176.621094 C 207.246094 175.960938 207.246094 175.296875 207.15625 174.632812 Z M 207.15625 174.632812 " fill-opacity="1" fill-rule="nonzero"/><path fill="#3696e1" d="M 233.320312 170.476562 C 231.410156 170.472656 229.664062 171.007812 228.082031 172.078125 C 227.398438 172.507812 226.765625 172.996094 226.175781 173.550781 C 225.691406 173.949219 225.273438 174.410156 224.921875 174.933594 C 224.957031 173.917969 224.726562 172.964844 224.230469 172.078125 C 223.582031 170.996094 221.847656 170.476562 218.992188 170.476562 C 216.050781 170.476562 214.277344 171.039062 213.582031 172.207031 C 213.242188 172.753906 213.027344 173.347656 212.933594 173.980469 C 212.839844 174.757812 212.8125 175.539062 212.847656 176.320312 L 212.847656 201.082031 C 212.847656 201.902344 212.890625 202.683594 212.933594 203.503906 C 213.03125 204.160156 213.234375 204.78125 213.539062 205.367188 C 214.1875 206.621094 216.007812 207.269531 218.90625 207.269531 C 221.894531 207.269531 223.710938 206.621094 224.316406 205.367188 C 224.65625 204.820312 224.871094 204.226562 224.964844 203.589844 C 225.058594 202.785156 225.089844 201.976562 225.050781 201.167969 L 225.050781 188.785156 C 225.027344 187.964844 225.164062 187.167969 225.464844 186.402344 C 225.765625 185.632812 226.203125 184.957031 226.785156 184.371094 C 227.386719 183.808594 228.074219 183.382812 228.847656 183.089844 C 229.617188 182.796875 230.417969 182.664062 231.242188 182.683594 C 233.101562 182.683594 234.574219 183.203125 235.65625 184.285156 C 236.738281 185.367188 237.300781 186.839844 237.300781 188.785156 L 237.300781 201.082031 C 237.246094 202.289062 237.390625 203.472656 237.734375 204.628906 C 238.253906 206.359375 240.15625 207.226562 243.445312 207.226562 C 246.433594 207.226562 248.25 206.578125 248.898438 205.324219 C 249.1875 204.757812 249.386719 204.167969 249.503906 203.546875 C 249.597656 202.742188 249.628906 201.933594 249.59375 201.125 L 249.59375 188.828125 C 249.59375 183.679688 248.035156 179.351562 244.960938 175.800781 C 244.257812 174.945312 243.464844 174.179688 242.585938 173.503906 C 241.707031 172.828125 240.761719 172.257812 239.753906 171.796875 C 238.746094 171.335938 237.695312 170.996094 236.609375 170.769531 C 235.523438 170.546875 234.425781 170.449219 233.320312 170.476562 Z M 233.320312 170.476562 " fill-opacity="1" fill-rule="nonzero"/><path fill="#3696e1" d="M 287.863281 174.328125 C 284.011719 170.734375 279.554688 168.917969 274.492188 168.917969 C 269.425781 168.917969 264.96875 170.734375 261.074219 174.371094 C 257.179688 178.007812 255.1875 182.640625 255.1875 188.222656 C 255.167969 190.011719 255.414062 191.757812 255.921875 193.46875 C 256.433594 195.183594 257.183594 196.78125 258.175781 198.265625 C 259.054688 199.628906 260.089844 200.863281 261.273438 201.972656 C 262.460938 203.078125 263.761719 204.023438 265.183594 204.808594 C 266.601562 205.59375 268.09375 206.195312 269.664062 206.613281 C 271.230469 207.027344 272.824219 207.246094 274.449219 207.269531 C 277.585938 207.265625 280.558594 206.558594 283.363281 205.148438 C 286.398438 203.601562 288.835938 201.394531 290.679688 198.527344 C 291.6875 197 292.449219 195.359375 292.96875 193.601562 C 293.484375 191.847656 293.730469 190.054688 293.707031 188.222656 C 293.664062 182.554688 291.71875 177.964844 287.863281 174.328125 Z M 274.40625 195.324219 C 273.925781 195.324219 273.453125 195.277344 272.984375 195.183594 C 272.519531 195.089844 272.0625 194.953125 271.621094 194.769531 C 271.179688 194.585938 270.761719 194.363281 270.367188 194.097656 C 269.96875 193.832031 269.601562 193.53125 269.261719 193.191406 C 268.925781 192.855469 268.625 192.488281 268.359375 192.089844 C 268.09375 191.695312 267.871094 191.273438 267.6875 190.832031 C 267.503906 190.390625 267.367188 189.9375 267.273438 189.46875 C 267.179688 189 267.132812 188.527344 267.132812 188.050781 C 267.132812 187.574219 267.179688 187.101562 267.273438 186.632812 C 267.367188 186.164062 267.503906 185.707031 267.6875 185.269531 C 267.871094 184.828125 268.09375 184.40625 268.359375 184.011719 C 268.625 183.613281 268.925781 183.246094 269.261719 182.910156 C 269.601562 182.570312 269.96875 182.269531 270.367188 182.003906 C 270.761719 181.738281 271.179688 181.515625 271.621094 181.332031 C 272.0625 181.148438 272.519531 181.011719 272.984375 180.917969 C 273.453125 180.824219 273.925781 180.777344 274.40625 180.777344 C 274.882812 180.777344 275.355469 180.824219 275.824219 180.917969 C 276.292969 181.011719 276.746094 181.148438 277.1875 181.332031 C 277.628906 181.515625 278.046875 181.738281 278.445312 182.003906 C 278.839844 182.269531 279.207031 182.570312 279.546875 182.910156 C 279.882812 183.246094 280.183594 183.613281 280.449219 184.011719 C 280.714844 184.40625 280.941406 184.828125 281.121094 185.269531 C 281.304688 185.707031 281.441406 186.164062 281.535156 186.632812 C 281.628906 187.101562 281.675781 187.574219 281.675781 188.050781 C 281.675781 188.527344 281.632812 189 281.539062 189.46875 C 281.445312 189.9375 281.308594 190.394531 281.125 190.835938 C 280.945312 191.277344 280.71875 191.695312 280.453125 192.09375 C 280.1875 192.492188 279.886719 192.859375 279.550781 193.195312 C 279.210938 193.535156 278.84375 193.835938 278.449219 194.101562 C 278.050781 194.367188 277.628906 194.589844 277.1875 194.773438 C 276.746094 194.957031 276.292969 195.09375 275.824219 195.183594 C 275.355469 195.277344 274.882812 195.324219 274.40625 195.324219 Z M 274.40625 195.324219 " fill-opacity="1" fill-rule="nonzero"/><path fill="#3696e1" d="M 331.957031 174.328125 C 328.105469 170.734375 323.648438 168.917969 318.585938 168.917969 C 313.523438 168.917969 309.0625 170.734375 305.167969 174.371094 C 301.273438 178.007812 299.28125 182.640625 299.28125 188.222656 C 299.265625 190.011719 299.515625 191.761719 300.027344 193.472656 C 300.539062 195.183594 301.292969 196.78125 302.285156 198.265625 C 303.167969 199.628906 304.199219 200.863281 305.386719 201.972656 C 306.570312 203.078125 307.875 204.023438 309.292969 204.808594 C 310.714844 205.59375 312.207031 206.195312 313.773438 206.613281 C 315.34375 207.027344 316.9375 207.246094 318.558594 207.269531 C 321.699219 207.265625 324.671875 206.558594 327.476562 205.148438 C 330.511719 203.601562 332.949219 201.394531 334.789062 198.527344 C 335.800781 197 336.5625 195.359375 337.078125 193.601562 C 337.59375 191.847656 337.839844 190.054688 337.820312 188.222656 C 337.777344 182.554688 335.855469 177.964844 331.957031 174.328125 Z M 318.5 195.324219 C 318.019531 195.324219 317.546875 195.277344 317.082031 195.183594 C 316.613281 195.089844 316.15625 194.953125 315.714844 194.769531 C 315.273438 194.585938 314.855469 194.363281 314.460938 194.097656 C 314.0625 193.832031 313.695312 193.53125 313.355469 193.191406 C 313.019531 192.855469 312.71875 192.488281 312.453125 192.089844 C 312.1875 191.695312 311.964844 191.273438 311.78125 190.832031 C 311.597656 190.390625 311.460938 189.9375 311.367188 189.46875 C 311.273438 189 311.226562 188.527344 311.226562 188.050781 C 311.226562 187.574219 311.273438 187.101562 311.367188 186.632812 C 311.460938 186.164062 311.597656 185.707031 311.78125 185.269531 C 311.964844 184.828125 312.1875 184.40625 312.453125 184.011719 C 312.71875 183.613281 313.019531 183.246094 313.355469 182.910156 C 313.695312 182.570312 314.0625 182.269531 314.460938 182.003906 C 314.855469 181.738281 315.273438 181.515625 315.714844 181.332031 C 316.15625 181.148438 316.613281 181.011719 317.082031 180.917969 C 317.546875 180.824219 318.019531 180.777344 318.5 180.777344 C 318.976562 180.777344 319.449219 180.824219 319.917969 180.917969 C 320.386719 181.011719 320.839844 181.148438 321.28125 181.332031 C 321.722656 181.515625 322.140625 181.738281 322.539062 182.003906 C 322.933594 182.269531 323.300781 182.570312 323.640625 182.910156 C 323.976562 183.246094 324.277344 183.613281 324.542969 184.011719 C 324.808594 184.40625 325.035156 184.828125 325.214844 185.269531 C 325.398438 185.707031 325.535156 186.164062 325.628906 186.632812 C 325.722656 187.101562 325.769531 187.574219 325.769531 188.050781 C 325.769531 188.527344 325.726562 189 325.632812 189.46875 C 325.539062 189.9375 325.402344 190.394531 325.21875 190.835938 C 325.039062 191.277344 324.8125 191.695312 324.546875 192.09375 C 324.285156 192.492188 323.980469 192.859375 323.644531 193.195312 C 323.304688 193.535156 322.9375 193.835938 322.542969 194.101562 C 322.144531 194.367188 321.726562 194.589844 321.285156 194.773438 C 320.84375 194.957031 320.386719 195.09375 319.917969 195.183594 C 319.449219 195.277344 318.976562 195.324219 318.5 195.324219 Z M 318.5 195.324219 " fill-opacity="1" fill-rule="nonzero"/><path fill="#3696e1" d="M 117.582031 178.1875 C 117.582031 178.128906 117.582031 178.128906 117.582031 178.070312 C 117.351562 175.890625 117.0625 173.707031 116.488281 171.527344 C 116.03125 169.804688 115.457031 168.140625 114.765625 166.53125 C 114.078125 164.925781 113.273438 163.375 112.355469 161.882812 C 111.4375 160.386719 110.460938 159.011719 109.3125 157.691406 C 108.222656 156.371094 107.015625 155.105469 105.695312 153.957031 C 104.429688 152.808594 103.054688 151.777344 101.558594 150.800781 C 100.125 149.824219 98.574219 149.019531 97.023438 148.273438 C 95.417969 147.527344 93.75 146.894531 92.085938 146.4375 C 90.363281 145.921875 88.582031 145.574219 86.859375 145.347656 C 85.308594 145.117188 83.761719 145.058594 82.210938 145.058594 C 80.890625 145.058594 79.511719 145.117188 78.191406 145.289062 C 76.871094 145.460938 75.550781 145.632812 74.285156 145.976562 C 73.023438 146.265625 71.757812 146.609375 70.554688 147.070312 C 69.347656 147.46875 68.140625 147.988281 66.992188 148.5625 C 65.84375 149.136719 64.695312 149.710938 63.664062 150.398438 C 62.570312 151.085938 61.539062 151.777344 60.5625 152.582031 C 59.585938 153.382812 58.609375 154.1875 57.691406 155.050781 C 56.773438 155.910156 55.910156 156.886719 55.105469 157.863281 C 54.304688 158.839844 53.558594 159.871094 52.808594 160.90625 C 52.121094 161.9375 51.433594 163.085938 50.859375 164.179688 C 50.285156 165.328125 49.710938 166.472656 49.25 167.679688 C 48.792969 168.886719 48.390625 170.148438 48.042969 171.355469 C 47.699219 172.617188 47.46875 173.9375 47.242188 175.203125 C 46.722656 178.875 46.78125 182.664062 46.953125 186.339844 C 47.011719 187.660156 47.125 188.921875 47.242188 190.242188 C 47.355469 191.449219 47.527344 192.710938 47.757812 193.917969 C 47.929688 195.066406 48.21875 196.214844 48.445312 197.363281 C 48.734375 198.453125 49.019531 199.546875 49.363281 200.578125 C 49.710938 201.613281 50.054688 202.589844 50.511719 203.5625 C 50.914062 204.484375 51.375 205.457031 51.835938 206.320312 C 52.292969 207.179688 52.808594 208.042969 53.382812 208.847656 C 53.902344 209.648438 54.53125 210.453125 55.105469 211.199219 C 55.738281 211.945312 56.371094 212.636719 57.058594 213.324219 C 57.75 214.011719 58.496094 214.644531 59.242188 215.21875 C 59.988281 215.851562 60.792969 216.367188 61.652344 216.941406 C 62.515625 217.457031 63.375 217.976562 64.238281 218.433594 C 65.15625 218.894531 66.132812 219.351562 67.050781 219.699219 C 68.027344 220.097656 69.058594 220.445312 70.09375 220.789062 C 71.183594 221.132812 72.277344 221.417969 73.367188 221.648438 C 75.203125 222.050781 77.042969 222.339844 78.9375 222.566406 C 80.832031 222.796875 82.726562 222.914062 84.621094 223.027344 C 86.515625 223.085938 88.410156 223.085938 90.304688 223.085938 C 90.59375 223.085938 90.9375 223.085938 91.222656 223.085938 C 92.199219 223.085938 93.175781 223.085938 94.152344 223.085938 C 95.1875 223.085938 96.277344 223.085938 97.3125 223.085938 C 98.402344 223.085938 99.492188 223.085938 100.585938 223.085938 C 101.675781 223.085938 102.765625 223.085938 103.855469 223.085938 C 104.890625 223.085938 105.925781 223.085938 107.015625 223.085938 C 107.992188 223.085938 108.96875 223.085938 109.886719 223.085938 C 110.746094 223.085938 111.550781 223.085938 112.414062 223.085938 C 113.101562 223.085938 113.789062 223.085938 114.421875 223.085938 C 115.054688 223.085938 115.742188 223.140625 116.375 223.085938 C 116.777344 223.085938 117.234375 222.914062 117.464844 222.566406 C 117.582031 222.339844 117.636719 222.109375 117.636719 221.878906 C 117.695312 221.074219 117.636719 220.328125 117.636719 219.523438 C 117.636719 218.550781 117.636719 217.574219 117.636719 216.539062 C 117.636719 215.277344 117.636719 214.011719 117.636719 212.75 C 117.636719 211.316406 117.636719 209.820312 117.636719 208.386719 C 117.636719 206.835938 117.636719 205.230469 117.636719 203.679688 C 117.636719 202.070312 117.636719 200.40625 117.636719 198.796875 C 117.636719 197.191406 117.636719 195.582031 117.636719 193.976562 C 117.636719 192.484375 117.636719 190.992188 117.636719 189.496094 C 117.636719 188.175781 117.636719 186.855469 117.636719 185.480469 C 117.695312 183.066406 117.808594 180.597656 117.582031 178.1875 Z M 82.265625 147.011719 C 100.640625 147.011719 115.570312 161.9375 115.570312 180.3125 L 115.570312 219.410156 C 115.570312 219.410156 110.402344 214.242188 110.402344 214.242188 C 110.402344 214.011719 110.402344 213.839844 110.402344 213.613281 C 110.402344 213.039062 110.402344 212.464844 110.402344 211.832031 C 110.402344 210.96875 110.402344 210.050781 110.402344 209.191406 C 110.402344 208.042969 110.402344 206.953125 110.402344 205.804688 C 110.402344 204.539062 110.402344 203.21875 110.402344 201.957031 C 110.402344 200.578125 110.402344 199.199219 110.402344 197.824219 C 110.402344 196.445312 110.402344 195.007812 110.402344 193.632812 C 110.402344 192.253906 110.402344 190.933594 110.402344 189.554688 C 110.402344 188.292969 110.402344 187.085938 110.402344 185.824219 C 110.402344 184.789062 110.402344 183.699219 110.402344 182.664062 C 110.402344 180.195312 110.34375 177.726562 109.886719 175.257812 C 109.886719 175.257812 109.886719 175.257812 109.886719 175.203125 C 109.714844 174.339844 109.542969 173.480469 109.253906 172.617188 C 108.796875 170.953125 108.164062 169.289062 107.359375 167.738281 C 106.613281 166.1875 105.695312 164.753906 104.605469 163.375 C 103.570312 161.996094 102.421875 160.734375 101.160156 159.585938 C 99.894531 158.4375 98.515625 157.402344 97.082031 156.484375 C 95.589844 155.566406 94.039062 154.761719 92.429688 154.128906 C 90.765625 153.5 89.101562 152.980469 87.378906 152.695312 C 85.710938 152.40625 83.988281 152.234375 82.265625 152.234375 C 80.945312 152.234375 79.566406 152.351562 78.246094 152.523438 C 76.925781 152.695312 75.664062 152.980469 74.402344 153.382812 C 73.136719 153.726562 71.929688 154.1875 70.78125 154.703125 C 69.632812 155.222656 68.484375 155.851562 67.394531 156.542969 C 66.304688 157.230469 65.269531 157.976562 64.292969 158.78125 C 63.320312 159.585938 62.398438 160.503906 61.539062 161.421875 C 60.675781 162.339844 59.875 163.375 59.183594 164.40625 C 58.4375 165.441406 57.804688 166.53125 57.230469 167.679688 C 56.65625 168.828125 56.140625 170.035156 55.738281 171.238281 C 55.335938 172.503906 54.992188 173.765625 54.707031 175.027344 C 54.476562 176.351562 54.304688 177.671875 54.246094 178.992188 C 54.1875 179.964844 54.1875 180.941406 54.246094 181.917969 C 54.246094 182.261719 54.304688 182.664062 54.359375 183.007812 C 54.53125 184.558594 54.820312 186.050781 55.164062 187.601562 C 55.507812 188.867188 55.96875 190.1875 56.484375 191.390625 C 57.003906 192.597656 57.632812 193.804688 58.265625 194.894531 C 58.953125 196.042969 59.699219 197.078125 60.503906 198.109375 C 61.308594 199.144531 62.226562 200.0625 63.203125 200.980469 C 64.179688 201.898438 65.15625 202.703125 66.246094 203.449219 C 67.335938 204.195312 68.429688 204.882812 69.632812 205.457031 C 70.839844 206.03125 72.046875 206.550781 73.308594 207.007812 C 74.574219 207.46875 75.894531 207.753906 77.214844 208.042969 C 78.417969 208.273438 79.683594 208.445312 80.945312 208.5 C 81.578125 208.558594 82.152344 208.5 82.785156 208.5 C 83.070312 208.5 83.359375 208.5 83.644531 208.5 C 84.046875 208.5 84.449219 208.5 84.910156 208.5 C 85.425781 208.5 85.941406 208.5 86.457031 208.5 C 87.03125 208.5 87.664062 208.5 88.238281 208.5 C 88.871094 208.5 89.503906 208.5 90.191406 208.5 C 90.878906 208.5 91.511719 208.5 92.199219 208.5 C 92.890625 208.5 93.519531 208.5 94.210938 208.5 C 94.84375 208.5 95.53125 208.5 96.164062 208.5 C 96.738281 208.5 97.367188 208.5 97.941406 208.5 C 98.460938 208.5 98.976562 208.5 99.550781 208.5 C 99.953125 208.5 100.410156 208.5 100.8125 208.5 C 101.101562 208.5 101.445312 208.5 101.734375 208.5 C 101.90625 208.5 102.019531 208.5 102.191406 208.5 C 102.191406 208.5 102.191406 208.5 102.25 208.5 C 102.824219 208.5 103.28125 208.042969 103.28125 207.46875 L 103.28125 182.148438 C 103.28125 174.570312 100.757812 168.253906 95.992188 163.949219 C 91.796875 160.160156 86.058594 158.09375 79.796875 158.09375 C 72.90625 158.09375 65.789062 160.734375 60.792969 165.726562 C 65.5 158.839844 73.425781 154.300781 82.382812 154.300781 C 89.617188 154.300781 96.679688 157.402344 101.558594 162.742188 C 104.375 165.785156 106.382812 169.515625 107.472656 173.535156 C 108.507812 177.269531 108.449219 181 108.449219 184.847656 C 108.449219 190.761719 108.449219 196.730469 108.449219 202.644531 C 108.449219 206.320312 108.449219 209.996094 108.449219 213.667969 L 82.382812 213.667969 C 64.007812 213.667969 49.078125 198.742188 49.078125 180.367188 C 49.078125 161.996094 63.890625 147.011719 82.265625 147.011719 Z M 82.210938 206.433594 C 68.140625 206.433594 56.65625 195.179688 56.199219 181.230469 C 56.714844 167.507812 68.542969 160.101562 79.683594 160.101562 C 85.425781 160.101562 90.707031 161.996094 94.496094 165.441406 C 98.804688 169.34375 101.101562 175.144531 101.101562 182.148438 L 101.101562 206.433594 Z M 50.167969 195.179688 C 50.167969 195.238281 50.226562 195.355469 50.285156 195.410156 C 50.339844 195.46875 50.339844 195.582031 50.398438 195.640625 C 50.457031 195.8125 50.570312 195.929688 50.628906 196.101562 C 50.800781 196.386719 50.972656 196.730469 51.085938 197.019531 C 51.433594 197.648438 51.777344 198.222656 52.121094 198.855469 C 52.464844 199.429688 52.867188 200.003906 53.269531 200.578125 C 53.671875 201.152344 54.074219 201.726562 54.53125 202.242188 C 54.992188 202.761719 55.394531 203.335938 55.855469 203.851562 C 56.3125 204.367188 56.773438 204.882812 57.289062 205.34375 C 57.804688 205.859375 58.265625 206.320312 58.78125 206.777344 C 59.300781 207.238281 59.816406 207.699219 60.390625 208.101562 C 60.964844 208.5 61.480469 208.960938 62.054688 209.363281 C 62.628906 209.765625 63.203125 210.167969 63.777344 210.511719 C 64.351562 210.855469 64.984375 211.199219 65.613281 211.542969 C 66.246094 211.890625 66.878906 212.175781 67.511719 212.464844 C 68.140625 212.75 68.773438 213.039062 69.460938 213.265625 C 70.09375 213.496094 70.78125 213.785156 71.472656 213.957031 C 72.160156 214.1875 72.851562 214.359375 73.539062 214.53125 C 74.226562 214.703125 74.917969 214.875 75.664062 214.988281 C 76.582031 215.160156 77.5 215.277344 78.476562 215.390625 C 79.453125 215.507812 80.371094 215.5625 81.347656 215.5625 C 81.636719 215.5625 81.921875 215.5625 82.265625 215.5625 C 82.554688 215.5625 82.898438 215.5625 83.1875 215.5625 C 83.53125 215.5625 83.875 215.5625 84.21875 215.5625 C 84.621094 215.5625 85.023438 215.5625 85.425781 215.5625 C 85.882812 215.5625 86.285156 215.5625 86.746094 215.5625 C 87.207031 215.5625 87.664062 215.5625 88.125 215.5625 C 88.640625 215.5625 89.101562 215.5625 89.617188 215.5625 C 90.132812 215.5625 90.648438 215.5625 91.167969 215.5625 C 91.683594 215.5625 92.199219 215.5625 92.71875 215.5625 C 93.234375 215.5625 93.75 215.5625 94.324219 215.5625 C 94.84375 215.5625 95.359375 215.5625 95.933594 215.5625 C 96.449219 215.5625 96.964844 215.5625 97.539062 215.5625 C 98.058594 215.5625 98.574219 215.5625 99.089844 215.5625 C 99.609375 215.5625 100.066406 215.5625 100.585938 215.5625 C 101.042969 215.5625 101.558594 215.5625 102.019531 215.5625 C 102.480469 215.5625 102.9375 215.5625 103.398438 215.5625 C 103.800781 215.5625 104.257812 215.5625 104.660156 215.5625 C 105.0625 215.5625 105.40625 215.5625 105.808594 215.5625 C 106.152344 215.5625 106.5 215.5625 106.785156 215.5625 C 107.074219 215.5625 107.359375 215.5625 107.648438 215.5625 C 107.875 215.5625 108.105469 215.5625 108.335938 215.5625 C 108.507812 215.5625 108.679688 215.5625 108.796875 215.5625 C 108.910156 215.5625 108.96875 215.5625 109.082031 215.5625 C 109.082031 215.5625 109.140625 215.5625 109.140625 215.5625 C 109.140625 215.5625 114.308594 220.730469 114.308594 220.730469 L 87.835938 220.730469 C 66.015625 220.902344 53.902344 212.636719 50.167969 195.179688 Z M 50.167969 195.179688 " fill-opacity="1" fill-rule="nonzero"/><path fill="#3696e1" d="M 117.636719 178.1875 C 117.636719 178.128906 117.636719 178.128906 117.636719 178.070312 C 117.410156 175.890625 117.121094 173.707031 116.546875 171.527344 C 116.085938 169.804688 115.511719 168.140625 114.824219 166.53125 C 114.136719 164.925781 113.332031 163.375 112.414062 161.882812 C 111.492188 160.386719 110.519531 159.011719 109.371094 157.691406 C 108.277344 156.371094 107.074219 155.105469 105.75 153.957031 C 104.488281 152.808594 103.109375 151.777344 101.617188 150.800781 C 100.183594 149.824219 98.632812 149.019531 97.082031 148.273438 C 95.472656 147.527344 93.808594 146.894531 92.144531 146.4375 C 90.421875 145.921875 88.640625 145.574219 86.917969 145.347656 C 85.367188 145.117188 83.816406 145.058594 82.265625 145.058594 C 80.945312 145.058594 79.566406 145.117188 78.246094 145.289062 C 76.925781 145.460938 75.605469 145.632812 74.34375 145.976562 C 73.078125 146.265625 71.816406 146.609375 70.609375 147.070312 C 69.40625 147.46875 68.199219 147.988281 67.050781 148.5625 C 65.902344 149.136719 64.753906 149.710938 63.71875 150.398438 C 62.628906 151.085938 61.597656 151.777344 60.621094 152.582031 C 59.644531 153.382812 58.667969 154.1875 57.75 155.050781 C 56.828125 155.910156 55.96875 156.886719 55.164062 157.863281 C 54.359375 158.839844 53.613281 159.871094 52.867188 160.90625 C 52.179688 161.9375 51.488281 163.085938 50.914062 164.179688 C 50.339844 165.328125 49.765625 166.472656 49.308594 167.679688 C 48.847656 168.886719 48.445312 170.148438 48.101562 171.355469 C 47.757812 172.617188 47.527344 173.9375 47.296875 175.203125 C 46.78125 178.875 46.839844 182.664062 47.011719 186.339844 C 47.070312 187.660156 47.183594 188.921875 47.296875 190.242188 C 47.414062 191.449219 47.585938 192.710938 47.816406 193.917969 C 47.988281 195.066406 48.273438 196.214844 48.503906 197.363281 C 48.792969 198.453125 49.078125 199.546875 49.421875 200.578125 C 49.765625 201.613281 50.113281 202.589844 50.570312 203.5625 C 50.972656 204.484375 51.433594 205.457031 51.890625 206.320312 C 52.351562 207.179688 52.867188 208.042969 53.441406 208.847656 C 53.957031 209.648438 54.589844 210.453125 55.164062 211.199219 C 55.796875 211.945312 56.429688 212.636719 57.117188 213.324219 C 57.804688 214.011719 58.550781 214.644531 59.300781 215.21875 C 60.046875 215.851562 60.847656 216.367188 61.710938 216.941406 C 62.570312 217.457031 63.433594 217.976562 64.292969 218.433594 C 65.214844 218.894531 66.1875 219.351562 67.109375 219.699219 C 68.085938 220.097656 69.117188 220.445312 70.152344 220.789062 C 71.242188 221.132812 72.332031 221.417969 73.425781 221.648438 C 75.261719 222.050781 77.097656 222.339844 78.992188 222.566406 C 80.890625 222.796875 82.785156 222.914062 84.679688 223.027344 C 86.574219 223.085938 88.46875 223.085938 90.363281 223.085938 C 90.648438 223.085938 90.996094 223.085938 91.28125 223.085938 C 92.257812 223.085938 93.234375 223.085938 94.210938 223.085938 C 95.242188 223.085938 96.335938 223.085938 97.367188 223.085938 C 98.460938 223.085938 99.550781 223.085938 100.640625 223.085938 C 101.734375 223.085938 102.824219 223.085938 103.914062 223.085938 C 104.949219 223.085938 105.980469 223.085938 107.074219 223.085938 C 108.046875 223.085938 109.023438 223.085938 109.945312 223.085938 C 110.804688 223.085938 111.609375 223.085938 112.46875 223.085938 C 113.160156 223.085938 113.847656 223.085938 114.480469 223.085938 C 115.113281 223.085938 115.800781 223.140625 116.433594 223.085938 C 116.835938 223.085938 117.292969 222.914062 117.523438 222.566406 C 117.636719 222.339844 117.695312 222.109375 117.695312 221.878906 C 117.753906 221.074219 117.695312 220.328125 117.695312 219.523438 C 117.695312 218.550781 117.695312 217.574219 117.695312 216.539062 C 117.695312 215.277344 117.695312 214.011719 117.695312 212.75 C 117.695312 211.316406 117.695312 209.820312 117.695312 208.386719 C 117.695312 206.835938 117.695312 205.230469 117.695312 203.679688 C 117.695312 202.070312 117.695312 200.40625 117.695312 198.796875 C 117.695312 197.191406 117.695312 195.582031 117.695312 193.976562 C 117.695312 192.484375 117.695312 190.992188 117.695312 189.496094 C 117.695312 188.175781 117.695312 186.855469 117.695312 185.480469 C 117.753906 183.066406 117.808594 180.597656 117.636719 178.1875 Z M 82.324219 147.011719 C 100.699219 147.011719 115.628906 161.9375 115.628906 180.3125 L 115.628906 219.410156 C 115.628906 219.410156 110.460938 214.242188 110.460938 214.242188 C 110.460938 214.011719 110.460938 213.839844 110.460938 213.613281 C 110.460938 213.039062 110.460938 212.464844 110.460938 211.832031 C 110.460938 210.96875 110.460938 210.050781 110.460938 209.191406 C 110.460938 208.042969 110.460938 206.953125 110.460938 205.804688 C 110.460938 204.539062 110.460938 203.21875 110.460938 201.957031 C 110.460938 200.578125 110.460938 199.199219 110.460938 197.824219 C 110.460938 196.445312 110.460938 195.007812 110.460938 193.632812 C 110.460938 192.253906 110.460938 190.933594 110.460938 189.554688 C 110.460938 188.292969 110.460938 187.085938 110.460938 185.824219 C 110.460938 184.789062 110.460938 183.699219 110.460938 182.664062 C 110.460938 180.195312 110.402344 177.726562 109.945312 175.257812 C 109.945312 175.257812 109.945312 175.257812 109.945312 175.203125 C 109.769531 174.339844 109.597656 173.480469 109.3125 172.617188 C 108.851562 170.953125 108.222656 169.289062 107.417969 167.738281 C 106.671875 166.1875 105.75 164.753906 104.660156 163.375 C 103.628906 161.996094 102.480469 160.734375 101.214844 159.585938 C 99.953125 158.4375 98.574219 157.402344 97.140625 156.484375 C 95.644531 155.566406 94.09375 154.761719 92.488281 154.128906 C 90.824219 153.5 89.15625 152.980469 87.433594 152.695312 C 85.769531 152.40625 84.046875 152.234375 82.324219 152.234375 C 81.003906 152.234375 79.625 152.351562 78.304688 152.523438 C 76.984375 152.695312 75.722656 152.980469 74.457031 153.382812 C 73.195312 153.726562 71.988281 154.1875 70.839844 154.703125 C 69.691406 155.222656 68.542969 155.851562 67.453125 156.542969 C 66.363281 157.230469 65.328125 157.976562 64.351562 158.78125 C 63.375 159.585938 62.457031 160.503906 61.597656 161.421875 C 60.734375 162.339844 59.929688 163.375 59.242188 164.40625 C 58.496094 165.441406 57.863281 166.53125 57.289062 167.679688 C 56.714844 168.828125 56.199219 170.035156 55.796875 171.238281 C 55.394531 172.503906 55.050781 173.765625 54.761719 175.027344 C 54.53125 176.351562 54.359375 177.671875 54.304688 178.992188 C 54.246094 179.964844 54.246094 180.941406 54.304688 181.917969 C 54.304688 182.261719 54.359375 182.664062 54.417969 183.007812 C 54.589844 184.558594 54.878906 186.050781 55.222656 187.601562 C 55.566406 188.867188 56.027344 190.1875 56.542969 191.390625 C 57.058594 192.597656 57.691406 193.804688 58.324219 194.894531 C 59.011719 196.042969 59.757812 197.078125 60.5625 198.109375 C 61.367188 199.144531 62.285156 200.0625 63.261719 200.980469 C 64.238281 201.898438 65.214844 202.703125 66.304688 203.449219 C 67.394531 204.195312 68.484375 204.882812 69.691406 205.457031 C 70.898438 206.03125 72.105469 206.550781 73.367188 207.007812 C 74.628906 207.46875 75.949219 207.753906 77.273438 208.042969 C 78.476562 208.273438 79.742188 208.445312 81.003906 208.5 C 81.636719 208.558594 82.210938 208.5 82.839844 208.5 C 83.128906 208.5 83.414062 208.5 83.703125 208.5 C 84.105469 208.5 84.507812 208.5 84.964844 208.5 C 85.484375 208.5 86 208.5 86.515625 208.5 C 87.089844 208.5 87.722656 208.5 88.296875 208.5 C 88.929688 208.5 89.558594 208.5 90.25 208.5 C 90.9375 208.5 91.570312 208.5 92.257812 208.5 C 92.945312 208.5 93.578125 208.5 94.269531 208.5 C 94.898438 208.5 95.589844 208.5 96.21875 208.5 C 96.792969 208.5 97.425781 208.5 98 208.5 C 98.515625 208.5 99.035156 208.5 99.609375 208.5 C 100.011719 208.5 100.46875 208.5 100.871094 208.5 C 101.160156 208.5 101.503906 208.5 101.789062 208.5 C 101.960938 208.5 102.078125 208.5 102.25 208.5 C 102.25 208.5 102.25 208.5 102.308594 208.5 C 102.882812 208.5 103.339844 208.042969 103.339844 207.46875 L 103.339844 182.148438 C 103.339844 174.570312 100.8125 168.253906 96.046875 163.949219 C 91.855469 160.160156 86.113281 158.09375 79.855469 158.09375 C 72.964844 158.09375 65.84375 160.734375 60.847656 165.726562 C 65.558594 158.839844 73.480469 154.300781 82.4375 154.300781 C 89.675781 154.300781 96.738281 157.402344 101.617188 162.742188 C 104.429688 165.785156 106.441406 169.515625 107.53125 173.535156 C 108.566406 177.269531 108.507812 181 108.507812 184.847656 C 108.507812 190.761719 108.507812 196.730469 108.507812 202.644531 C 108.507812 206.320312 108.507812 209.996094 108.507812 213.667969 L 82.4375 213.667969 C 64.066406 213.667969 49.136719 198.742188 49.136719 180.367188 C 49.136719 161.996094 63.949219 147.011719 82.324219 147.011719 Z M 82.265625 206.433594 C 68.199219 206.433594 56.714844 195.179688 56.253906 181.230469 C 56.773438 167.507812 68.601562 160.101562 79.742188 160.101562 C 85.484375 160.101562 90.765625 161.996094 94.554688 165.441406 C 98.863281 169.34375 101.160156 175.144531 101.160156 182.148438 L 101.160156 206.433594 Z M 50.226562 195.179688 C 50.226562 195.238281 50.285156 195.355469 50.339844 195.410156 C 50.398438 195.46875 50.398438 195.582031 50.457031 195.640625 C 50.511719 195.8125 50.628906 195.929688 50.6875 196.101562 C 50.859375 196.386719 51.03125 196.730469 51.144531 197.019531 C 51.488281 197.648438 51.835938 198.222656 52.179688 198.855469 C 52.523438 199.429688 52.925781 200.003906 53.328125 200.578125 C 53.730469 201.152344 54.132812 201.726562 54.589844 202.242188 C 55.050781 202.761719 55.453125 203.335938 55.910156 203.851562 C 56.371094 204.367188 56.828125 204.882812 57.347656 205.34375 C 57.863281 205.859375 58.324219 206.320312 58.839844 206.777344 C 59.355469 207.238281 59.875 207.699219 60.449219 208.101562 C 61.023438 208.5 61.539062 208.960938 62.113281 209.363281 C 62.6875 209.765625 63.261719 210.167969 63.835938 210.511719 C 64.410156 210.855469 65.039062 211.199219 65.671875 211.542969 C 66.304688 211.890625 66.9375 212.175781 67.566406 212.464844 C 68.199219 212.75 68.832031 213.039062 69.519531 213.265625 C 70.152344 213.496094 70.839844 213.785156 71.53125 213.957031 C 72.21875 214.1875 72.90625 214.359375 73.597656 214.53125 C 74.285156 214.703125 74.976562 214.875 75.722656 214.988281 C 76.640625 215.160156 77.558594 215.277344 78.535156 215.390625 C 79.511719 215.507812 80.429688 215.5625 81.40625 215.5625 C 81.691406 215.5625 81.980469 215.5625 82.324219 215.5625 C 82.613281 215.5625 82.957031 215.5625 83.242188 215.5625 C 83.585938 215.5625 83.933594 215.5625 84.277344 215.5625 C 84.679688 215.5625 85.082031 215.5625 85.484375 215.5625 C 85.941406 215.5625 86.34375 215.5625 86.804688 215.5625 C 87.261719 215.5625 87.722656 215.5625 88.179688 215.5625 C 88.699219 215.5625 89.15625 215.5625 89.675781 215.5625 C 90.191406 215.5625 90.707031 215.5625 91.222656 215.5625 C 91.742188 215.5625 92.257812 215.5625 92.773438 215.5625 C 93.292969 215.5625 93.808594 215.5625 94.382812 215.5625 C 94.898438 215.5625 95.417969 215.5625 95.992188 215.5625 C 96.507812 215.5625 97.023438 215.5625 97.597656 215.5625 C 98.113281 215.5625 98.632812 215.5625 99.148438 215.5625 C 99.664062 215.5625 100.125 215.5625 100.640625 215.5625 C 101.101562 215.5625 101.617188 215.5625 102.078125 215.5625 C 102.535156 215.5625 102.996094 215.5625 103.457031 215.5625 C 103.855469 215.5625 104.316406 215.5625 104.71875 215.5625 C 105.121094 215.5625 105.464844 215.5625 105.867188 215.5625 C 106.210938 215.5625 106.554688 215.5625 106.84375 215.5625 C 107.128906 215.5625 107.417969 215.5625 107.703125 215.5625 C 107.933594 215.5625 108.164062 215.5625 108.394531 215.5625 C 108.566406 215.5625 108.738281 215.5625 108.851562 215.5625 C 108.96875 215.5625 109.023438 215.5625 109.140625 215.5625 C 109.140625 215.5625 109.195312 215.5625 109.195312 215.5625 C 109.195312 215.5625 114.363281 220.730469 114.363281 220.730469 L 87.894531 220.730469 C 66.074219 220.902344 53.957031 212.636719 50.226562 195.179688 Z M 50.226562 195.179688 " fill-opacity="1" fill-rule="nonzero"/><path fill="#ffffff" d="M 115.789062 221.042969 C 115.644531 221.1875 115.570312 221.332031 115.570312 221.550781 C 115.570312 221.660156 115.609375 221.804688 115.679688 221.914062 C 115.753906 222.023438 115.824219 222.09375 115.933594 222.167969 C 116.042969 222.203125 116.152344 222.242188 116.261719 222.242188 C 116.371094 222.242188 116.476562 222.203125 116.585938 222.167969 C 116.695312 222.132812 116.769531 222.023438 116.839844 221.914062 C 116.914062 221.804688 116.949219 221.660156 116.949219 221.550781 C 116.949219 221.371094 116.878906 221.1875 116.734375 221.042969 C 116.585938 220.898438 116.441406 220.863281 116.261719 220.863281 C 116.078125 220.863281 115.933594 220.933594 115.789062 221.042969 Z M 116.261719 221.769531 C 116.1875 221.769531 116.152344 221.734375 116.117188 221.695312 C 116.078125 221.660156 116.042969 221.585938 116.042969 221.515625 C 116.042969 221.441406 116.078125 221.371094 116.117188 221.332031 C 116.152344 221.296875 116.222656 221.261719 116.296875 221.261719 C 116.371094 221.261719 116.40625 221.296875 116.476562 221.332031 C 116.515625 221.371094 116.550781 221.441406 116.550781 221.515625 C 116.550781 221.585938 116.515625 221.660156 116.476562 221.695312 C 116.371094 221.769531 116.296875 221.769531 116.261719 221.769531 Z M 116.261719 221.769531 " fill-opacity="1" fill-rule="nonzero"/></svg>